<?xml version="1.0" ?><svg viewBox="0 0 48 48" xmlns="http://www.w3.org/2000/svg"><defs><style>.cls-1{fill:#374f68;}.cls-2{fill:#425b72;}.cls-3{fill:#9fdbf3;}.cls-4{fill:#b2e5fb;}.cls-5{fill:#a87e6b;}.cls-6{fill:#be927c;}.cls-7{fill:#9dcc6b;}.cls-8{fill:#231f20;}</style></defs><title/><g data-name="Search Virus" id="Search_Virus"><path class="cls-1" d="M31,16A15,15,0,0,1,16,31C2,31-4.37,13.38,6.43,4.46,8.13,2.76,12.07,1,16,1A15,15,0,0,1,31,16Z"/><path class="cls-2" d="M27.56,25.56A15,15,0,0,1,18,29C5.24,29-1.55,14.11,6.43,4.46,8.13,2.76,12.07,1,16,1,28.77,1,35.55,15.92,27.56,25.56Z"/><path class="cls-3" d="M27,16A11,11,0,1,1,16,5,11,11,0,0,1,27,16Z"/><path class="cls-4" d="M25,19a10.92,10.92,0,0,1-1,4.51A11,11,0,0,1,6,11.49,11,11,0,0,1,25,19Z"/><path class="cls-1" d="M31.59,27.34l-4.25,4.25-3.07-3.08a15,15,0,0,0,4.24-4.24Z"/><path class="cls-2" d="M31.59,27.34l-3.25,3.25-2.07-2.08a15.33,15.33,0,0,0,3.4-3.08Z"/><path class="cls-5" d="M46.31,42.69l-3.62,3.62a1,1,0,0,1-1.4,0L27.38,33a1,1,0,0,1,0-1.43l4.21-4.21a1,1,0,0,1,1.43,0c9.88,10.33,13.42,14,13.32,13.91A1,1,0,0,1,46.31,42.69Z"/><path class="cls-6" d="M45.53,40.47a5.11,5.11,0,0,1-7.14.08L28.17,30.76l3.4-3.4a1,1,0,0,1,1.43,0Z"/><circle class="cls-7" cx="16" cy="16" r="4"/><path class="cls-8" d="M16,4A12,12,0,1,0,28,16,12,12,0,0,0,16,4Zm0,22A10,10,0,1,1,26,16,10,10,0,0,1,16,26Z"/><path class="cls-8" d="M47.72,41.31c-15.28-16-15.13-16.38-16.13-15.38l-1.82-1.82a16,16,0,1,0-5.66,5.66l1.82,1.82a1,1,0,0,0,0,1.43C42.72,49.07,41.43,48,42,48s.35.06,5.71-5.29A1,1,0,0,0,47.72,41.31ZM2,16A14,14,0,1,1,16,30,14,14,0,0,1,2,16Zm26.62,9.8,1.55,1.54-2.83,2.83L25.8,28.62A16.36,16.36,0,0,0,28.62,25.8ZM42,45.6,28.07,32.28l4.21-4.21L45.6,42Z"/><path class="cls-8" d="M22,15c-2,0-.5.26-1.83-1.75l.78-.78a1,1,0,0,0-1.42-1.42l-.78.78C16.82,10.55,17,11.92,17,10a1,1,0,0,0-2,0c0,2,.26.5-1.75,1.83l-.78-.78a1,1,0,0,0-1.42,1.42l.78.78C10.55,15.18,11.92,15,10,15a1,1,0,0,0,0,2c2,0,.5-.26,1.83,1.75l-.78.78A1,1,0,0,0,12.47,21c1.42-1.42.15-.54,2.53-.05V22a1,1,0,0,0,2,0V20.9c2.32-.47,1.13-1.35,2.53.05A1,1,0,0,0,21,19.53l-.78-.78C21.45,16.82,20.08,17,22,17A1,1,0,0,0,22,15Zm-6,4a3,3,0,1,1,3-3A3,3,0,0,1,16,19Z"/><path class="cls-8" d="M15,14a1,1,0,0,0,0,2A1,1,0,0,0,15,14Z"/><path class="cls-8" d="M17,16a1,1,0,0,0,0,2A1,1,0,0,0,17,16Z"/></g></svg>